HIERARCHY
ROOT Hips
{
	OFFSET 0.00000 0.00000 0.00000
	CHANNELS 6 Xposition Yposition Zposition Zrotation Yrotation Xrotation 
	JOINT LHipJoint
	{
		OFFSET 0 0 0
		CHANNELS 3 Zrotation Yrotation Xrotation
		JOINT LeftHip
		{
			OFFSET 1.28858 -1.83292 1.03970
			CHANNELS 3 Zrotation Yrotation Xrotation
			JOINT LeftKnee
			{
				OFFSET 2.47846 -6.80952 0.00000
				CHANNELS 3 Zrotation Yrotation Xrotation
				JOINT LeftAnkle
				{
					OFFSET 2.75274 -7.56311 0.00000
					CHANNELS 3 Zrotation Yrotation Xrotation
					JOINT LeftToe
					{
						OFFSET 0.12848 -0.35301 1.68223
						CHANNELS 3 Zrotation Yrotation Xrotation
						End Site
						{
							OFFSET 0.00000 -0.00000 0.87311
						}
					}
				}
			}
		}
	}
	JOINT RHipJoint
	{
		OFFSET 0 0 0
		CHANNELS 3 Zrotation Yrotation Xrotation
		JOINT RightHip
		{
			OFFSET -1.31183 -1.83292 1.03970
			CHANNELS 3 Zrotation Yrotation Xrotation
			JOINT RightKnee
			{
				OFFSET -2.44740 -6.72417 0.00000
				CHANNELS 3 Zrotation Yrotation Xrotation
				JOINT RightAnkle
				{
					OFFSET -2.67343 -7.34519 0.00000
					CHANNELS 3 Zrotation Yrotation Xrotation
					JOINT RightToe
					{
						OFFSET -0.16914 -0.46471 1.77626
						CHANNELS 3 Zrotation Yrotation Xrotation
						End Site
						{
							OFFSET -0.00000 -0.00000 0.92777
						}
					}
				}
			}
		}
	}
	JOINT lowerback
	{
		OFFSET 0 0 0
		CHANNELS 3 Zrotation Yrotation Xrotation
		JOINT Chest
		{
			OFFSET 0.01249 2.14252 0.03842
			CHANNELS 3 Zrotation Yrotation Xrotation
			JOINT Chest2
			{
				OFFSET -0.02957 2.14199 -0.03751
				CHANNELS 3 Zrotation Yrotation Xrotation
				JOINT lowerneck
				{
					OFFSET 0 0 0
					CHANNELS 3 Zrotation Yrotation Xrotation
					JOINT Neck
					{
						OFFSET -0.01678 1.65709 -0.05476
						CHANNELS 3 Zrotation Yrotation Xrotation
						JOINT Head
						{
							OFFSET 0.07912 1.58331 -0.11843
							CHANNELS 3 Zrotation Yrotation Xrotation
							End Site
							{
								OFFSET 0.03298 1.73940 -0.04271
							}
						}
					}
				}
				JOINT LeftCollar
				{
					OFFSET 0 0 0
					CHANNELS 3 Zrotation Yrotation Xrotation
					JOINT LeftShoulder
					{
						OFFSET 3.39556 1.16496 0.08673
CHANNELS 3 Zrotation Xrotation Yrotation
						JOINT LeftElbow
						{
OFFSET 0 -5.239100 -0.000000
CHANNELS 3 Zrotation Xrotation Yrotation
							JOINT LeftWrist
							{
OFFSET 0 -3.314670 0.000000
CHANNELS 3 Zrotation Xrotation Yrotation
								JOINT lhand
								{
									OFFSET 0 0 0
CHANNELS 3 Zrotation Xrotation Yrotation
									JOINT LFingers
									{
OFFSET 0 -0.965900 0.000000
CHANNELS 3 Zrotation Xrotation Yrotation
										End Site
										{
OFFSET 0 -0.778730 0.000000
										}
									}
								}
								JOINT LThumb
								{
OFFSET 0 0.000000 0.000000
CHANNELS 3 Zrotation Xrotation Yrotation
									End Site
									{
OFFSET 0 -0.790620 0.790620
									}
								}
							}
						}
					}
				}
				JOINT RightCollar
				{
					OFFSET 0 0 0
					CHANNELS 3 Zrotation Yrotation Xrotation
					JOINT RightShoulder
					{
						OFFSET -3.27193 1.31331 0.33940
CHANNELS 3 Zrotation Xrotation Yrotation
						JOINT RightElbow
						{
OFFSET 0 -5.302520 0.000000
CHANNELS 3 Zrotation Xrotation Yrotation
							JOINT RightWrist
							{
OFFSET 0 -3.678750 0.000000
CHANNELS 3 Zrotation Xrotation Yrotation
								JOINT rhand
								{
									OFFSET 0 0 0
CHANNELS 3 Zrotation Xrotation Yrotation
									JOINT RFingers
									{
OFFSET 0 -0.594810 0.000000
CHANNELS 3 Zrotation Xrotation Yrotation
										End Site
										{
OFFSET 0 -0.479550 0.000000
										}
									}
								}
								JOINT RThumb
								{
OFFSET 0 0.000000 0.000000
CHANNELS 3 Zrotation Xrotation Yrotation
									End Site
									{
OFFSET 0 -0.486870 0.486870
									}
								}
							}
						}
					}
				}
			}
		}
	}
}
MOTION
Frames: 4
Frame Time: 0.008333333333333333
8.191583 10.507944 10.781294 4.254277 -1.269726 -0.094611 0.000000 0.000000 0.000000 1.417468 30.247608 -89.364669 9.024636 16.822136 56.173158 37.428647 1.360911 -149.169397 5.446549 13.865201 42.709220 0.000000 0.000000 0.000000 -21.175057 -26.506572 -70.313045 -7.923288 -16.058053 52.278651 -39.591855 1.084209 167.481063 -0.011117 -0.569702 1.565879 -1.205910 -2.221182 23.328601 -0.663631 -3.170459 8.202778 0.795028 -1.559377 -3.960964 0.503602 9.994856 6.366239 -4.585196 13.096647 -17.373272 -2.404575 6.722630 -5.959549 0.000000 0.000000 0.000000 23.923633 -21.922399 -21.487973 87.382144 -59.908410 57.734575 32.779312 -67.436555 14.745095 0.000000 0.000000 0.000000 -7.125000 0.000000 0.000000 3.501778 12.621296 2.658062 0.000000 0.000000 0.000000 -45.959881 -6.828270 67.581427 -159.878188 -30.783688 -114.404028 6.097753 -46.701401 33.163083 0.000000 0.000000 0.000000 7.125000 0.000000 0.000000 42.323882 57.825630 -15.040868
8.220817 10.820575 10.931173 4.245252 -0.052699 1.694204 0.000000 0.000000 0.000000 2.089106 28.305946 -87.906095 10.185862 17.511297 60.105529 39.083483 6.897755 -158.210264 3.803440 11.884138 35.336615 0.000000 0.000000 0.000000 -20.191248 -25.145036 -71.409010 -9.914836 -17.356657 59.196427 -39.321653 -2.616075 165.115585 -0.105773 2.049126 -5.642967 -1.556155 -2.270116 22.043245 -0.584006 -3.299910 7.011061 1.091962 -1.611448 -4.582247 1.457783 9.599390 5.525438 -4.099556 12.723523 -15.966471 -2.264770 6.451794 -5.354466 0.000000 0.000000 0.000000 31.181796 -15.256996 -22.784882 110.955226 -58.208108 78.031574 33.074251 -74.790569 14.846086 0.000000 0.000000 0.000000 -7.125000 0.000000 0.000000 3.684734 12.453223 2.809449 0.000000 0.000000 0.000000 -48.281926 -1.729223 61.367944 -159.101951 -31.697583 -113.998343 5.756106 -52.107259 32.887938 0.000000 0.000000 0.000000 7.125000 0.000000 0.000000 41.733144 57.690737 -14.636147
8.272640 11.059503 11.086386 3.714485 1.416838 3.618276 0.000000 0.000000 0.000000 3.147963 25.729325 -86.445948 11.611773 18.219470 64.750267 40.154055 11.462039 -166.157281 2.499649 9.833504 28.442343 0.000000 0.000000 0.000000 -18.576098 -24.811102 -72.152397 -12.061293 -18.412730 66.178923 -38.916977 -5.736297 161.414440 -0.490027 4.478370 -12.428177 -1.398201 -1.768866 20.544706 -0.395590 -2.596177 5.949535 1.000288 -1.258206 -4.976099 1.068945 8.421739 5.120490 -2.091249 11.373964 -16.106970 -1.518303 5.664660 -5.516496 0.000000 0.000000 0.000000 37.661619 -12.805152 -31.293529 131.535367 -52.276174 95.024673 29.744638 -78.720870 16.450599 0.000000 0.000000 0.000000 -7.125000 0.000000 0.000000 1.287871 11.203265 1.008619 0.000000 0.000000 0.000000 -45.385493 6.661253 43.156761 -151.269863 -39.726362 -109.392360 7.950324 -45.465059 31.011832 0.000000 0.000000 0.000000 7.125000 0.000000 0.000000 41.931975 55.793689 -12.689058
8.347541 11.227460 11.257172 3.382440 2.917076 5.137562 0.000000 0.000000 0.000000 3.753867 22.855829 -84.285974 13.122869 18.824698 69.505560 40.775119 15.905792 -169.564009 2.610885 10.029783 29.079597 0.000000 0.000000 0.000000 -17.423807 -25.324029 -71.936532 -13.936779 -19.092682 72.009524 -38.410989 -7.259180 157.431430 -0.629626 5.077031 -14.128510 -1.103252 -0.778859 19.129870 -0.225656 -1.230668 4.936576 0.672066 -0.586371 -5.358251 -1.500301 6.753048 6.402070 1.056695 9.333959 -17.336156 -0.118637 4.561200 -6.440613 0.000000 0.000000 0.000000 42.494654 -15.210761 -47.608847 147.910812 -42.543747 107.172382 25.027423 -75.973040 20.459122 0.000000 0.000000 0.000000 -7.125000 0.000000 0.000000 -2.210520 7.618296 -1.909501 0.000000 0.000000 0.000000 -39.322243 13.579189 25.299713 -138.823310 -48.708359 -100.667493 10.125874 -44.719451 30.414993 0.000000 0.000000 0.000000 7.125000 0.000000 0.000000 43.330604 54.903750 -12.231749
